<?xml version="1.0" encoding="utf-8"?>
<?xml-stylesheet type="text/xsl" href="rss1.xsl"?>
<rss version="2.0" xmlns:atom="http://www.w3.org/2005/Atom" xmlns:content="http://purl.org/rss/1.0/modules/content/" xmlns:dc="http://purl.org/dc/elements/1.1/" xmlns:media="http://search.yahoo.com/mrss/">
<channel>
 <title>Getty</title>
 <link>http://www.gettyimg.com/</link>
 <atom:link href="http://www.gettyimg.com/" rel="self" type="application/rss+xml" />

 
                <item>
                <title><![CDATA[【Requests】[REQ AUD] - Mariah Carey - Everything Fades Away (24-Bit/96.0 kHz) Qobuz]]></title>
                <link><![CDATA[https://sharemania.us/threads/mariah-carey-everything-fades-away-24-bit-96-0-khz-qobuz.228253/]]></link>
                <description><![CDATA[<article>
<blockquote class="messageText SelectQuoteContainer ugc baseHtml">
<a href="https://www.qobuz.com/us-en/album/music-box-mariah-carey/h7oskdf4bfbja" target="_blank" class="externalLink" rel="nofollow">Music Box, Mariah Carey - Qobuz</a><br>
<br>
Not sure if the track is just recently available along with the 30th anniversary release. But the previous hi-res album shared here didn't have this track. <a href="https://sharemania.us/threads/mariah-carey-music-box-qobuz-hi-res-24bits-96-0khz.102792/" class="internalLink">FLAC - Mariah Carey - Music Box [Qobuz Hi-Res 24bits/96.0kHz] | ShareMania.US</a><br>
Neither The Rarities nor the 30th anniversary edition are in 24/96 quality.
<div class="messageTextEndMarker">&nbsp;</div>
</blockquote>
</article>]]></description>
                <author><![CDATA[TAITORU]]></author>
                </item>

                
                <item>
                <title><![CDATA[【Cinema Center】SERIES - Bunk'd - Season 6 - 1080p Netflix WEB-DL DDP5.1 x264-LAZY]]></title>
                <link><![CDATA[https://sharemania.us/threads/bunkd-season-6-1080p-netflix-web-dl-ddp5-1-x264-lazy.228254/]]></link>
                <description><![CDATA[<article>
<blockquote class="messageText SelectQuoteContainer ugc baseHtml">
Bunk'd:<img src="https://i.imgaa.com/2021/07/30/6103e3229a45e454079967.jpg" class="bbCodeImage LbImage" alt="[​IMG]" data-url="https://i.imgaa.com/2021/07/30/6103e3229a45e454079967.jpg" style=""> <br>
<br>
<div class="bbCodeBlock bbCodeQuote">
<aside>
<blockquote class="quoteContainer"><div class="quote"><i><b>Synopsis:</b></i><br>
Siblings Emma, Ravi, and Zuri Ross leave their extravagant New York City penthouse once again to return to Camp Kikiwaka, a rustic summer camp in Maine where their parents met as teenagers.</div><div class="quoteExpand">Click to expand...</div></blockquote>
</aside>
</div>
<div class="ToggleTriggerAnchor bbCodeSpoilerContainer">
<button type="button" class="button bbCodeSpoilerButton ToggleTrigger Tooltip JsOnly" data-target="> .SpoilerTarget"><span>Spoiler: <span class="SpoilerTitle">MediaInfo</span></span></button>
<div class="SpoilerTarget bbCodeSpoilerText">General<br>
Unique ID : 239456287377736832680219257272920012669 (0xB4259A79F2562EA975196DDA6C71777D)<br>
Complete name : Bunkd.S06E01.Learning.the.Ropes.1080p.NF.WEB-DL.DDP5.1.x264-LAZY.mkv<br>
Format : Matroska<br>
Format version : Version 4<br>
File size : 1.43 GiB<br>
Duration : 25 min 36 s<br>
Overall bit rate mode : Variable<br>
Overall bit rate : 7 969 kb/s<br>
Frame rate : 23.976 FPS<br>
Encoded date : 2023-08-07 19:30:30 UTC<br>
Writing application : mkvmerge v78.0 ('Running') 64-bit<br>
Writing library : libebml v1.4.4 + libmatroska v1.7.1<br>
<br>
Video<br>
ID : 1<br>
Format : AVC<br>
Format/Info : Advanced Video Codec<br>
Format profile : High@L4<br>
Format settings : CABAC / 4 Ref Frames<br>
Format settings, CABAC : Yes<br>
Format settings, Reference frames : 4 frames<br>
Codec ID : V_MPEG4/ISO/AVC<br>
Duration : 25 min 36 s<br>
Bit rate mode : Variable<br>
Bit rate : 7 328 kb/s<br>
Maximum bit rate : 20.0 Mb/s<br>
Width : 1 920 pixels<br>
Height : 1 080 pixels<br>
Display aspect ratio : 16:9<br>
Frame rate mode : Constant<br>
Frame rate : 23.976 (24000/1001) FPS<br>
Color space : YUV<br>
Chroma subsampling : 4:2:0<br>
Bit depth : 8 bits<br>
Scan type : Progressive<br>
Bits/(Pixel*Frame) : 0.147<br>
Stream size : 1.31 GiB (92%)<br>
Writing library : x264 core 148 r2727 7d026e8<br>
Encoding settings : cabac=1 / ref=4 / deblock=1:0:0 / analyse=0x3:0x111 / me=umh / subme=10 / psy=1 / psy_rd=1.00:0.00 / mixed_ref=1 / me_range=120 / chroma_me=1 / trellis=2 / 8x8dct=1 / cqm=0 / deadzone=21,11 / fast_pskip=1 / chroma_qp_offset=-2 / threads=6 / lookahead_threads=1 / sliced_threads=0 / nr=0 / decimate=1 / interlaced=0 / bluray_compat=0 / stitchable=1 / constrained_intra=0 / bframes=16 / b_pyramid=2 / b_adapt=2 / b_bias=0 / direct=3 / weightb=1 / open_gop=0 / weightp=2 / keyint=240 / keyint_min=121 / scenecut=0 / intra_refresh=0 / rc_lookahead=240 / rc=crf / mbtree=1 / crf=24.0 / qcomp=0.50 / qpmin=6 / qpmax=51 / qpstep=4 / vbv_maxrate=20000 / vbv_bufsize=25000 / crf_max=0.0 / nal_hrd=vbr / filler=0 / ip_ratio=1.40 / aq=1:0.80<br>
Default : Yes<br>
Forced : No<br>
<br>
Audio<br>
ID : 2<br>
Format : E-AC-3<br>
Format/Info : Enhanced AC-3<br>
Commercial name : Dolby Digital Plus<br>
Codec ID : A_EAC3<br>
Duration : 25 min 36 s<br>
Bit rate mode : Constant<br>
Bit rate : 640 kb/s<br>
Channel(s) : 6 channels<br>
Channel layout : L R C LFE Ls Rs<br>
Sampling rate : 48.0 kHz<br>
Frame rate : 31.250 FPS (1536 SPF)<br>
Compression mode : Lossy<br>
Stream size : 117 MiB (8%)<br>
Language : English<br>
Service kind : Complete Main<br>
Default : Yes<br>
Forced : No<br>
<br>
Text<br>
ID : 3<br>
Format : UTF-8<br>
Codec ID : S_TEXT/UTF8<br>
Codec ID/Info : UTF-8 Plain Text<br>
Duration : 25 min 1 s<br>
Bit rate : 102 b/s<br>
Frame rate : 0.392 FPS<br>
Count of elements : 588<br>
Stream size : 18.8 KiB (0%)<br>
Title : SDH<br>
Language : English<br>
Default : No<br>
Forced : No<br>
<br>
Menu<br>
00:00:00.000 : en<img src="styles/default/xenforo/smilies/grimace-48.png" class="mceSmilie" alt=":p" title="Stick Out Tongue    :p">art 01<br>
00:01:57.500 : en:Intro<br>
00:02:08.250 : en<img src="styles/default/xenforo/smilies/grimace-48.png" class="mceSmilie" alt=":p" title="Stick Out Tongue    :p">art 02<br>
00:25:05.450 : en:Credits</div>
</div><br>
Screenshots:<br>
<img src="https://i.imgur.com/WfPb8OI.jpg" class="bbCodeImage LbImage" alt="[​IMG]" data-url="https://i.imgur.com/WfPb8OI.jpg" style=""> <br>
<br>
<div class="bbCodeBlock bbCodeVfcHH HiddenContent">
<div class="attribution type">Hidden Content:</div>
<blockquote>You must either reply or click 'Like' to see the hidden information contained here.</blockquote>
</div>
<div class="messageTextEndMarker">&nbsp;</div>
</blockquote>
</article>]]></description>
                <author><![CDATA[LazyRips]]></author>
                </item>

                </channel></rss>